# xmcd
# Track frame offsets:
# 150
# 13763
# 26640
# 42563
# 56480
# 67525
# 86218
# 99040
# 110908
# 137560
# 153140
# 163458
# 173505
# 187853
#
# Disc length: 2658 seconds
# Revision: 0
# Processed by: cddbd v1.4PL0 Copyright (c) Steve Scherf et al.
# Submitted via: VisiTrax 2.9.5.180 - For more info visit www.synapsa.com
#
DISCID=ac0a600e
DTITLE=Various Artist - Mr.Music Country
DYEAR=1991
DGENRE=
TTITLE0=Bill Arwood - Swinging Little Honky Tonk
TTITLE1=R.B.Stone - Oh,My Theresa
TTITLE2=Chris Wall - Something to Shoot
TTITLE3=Inger Nordstrøm - Ciamarron County
TTITLE4=Sonny Carson - Messin´ Around
TTITLE5=Red Jenkins and Ann Kihlstrøm - A Violin That Never Has Been Played
TTITLE6=B.L.Audrey - Honey,Don´t Do Me No Favors
TTITLE7=Carl Jackson and John Starling - For Cryin´ Out Loud
TTITLE8=Tom Russell and Ian Tyson - Gallo Del Ciello
TTITLE9=Ottar "Bighand" Johansen - Song For Sulis
TTITLE10=Linda Wunder - Time To Moving On
TTITLE11=Ted Roddy - Rock `N´Roll Honky Tonkin´´
TTITLE12=Pat Alger - Goin´gone
TTITLE13=Johnny And The Roccos - I Hate The Disco
EXTD=
EXTT0=
EXTT1=
EXTT2=
EXTT3=
EXTT4=
EXTT5=
EXTT6=
EXTT7=
EXTT8=
EXTT9=
EXTT10=
EXTT11=
EXTT12=
EXTT13=
PLAYORDER=
